<svg xmlns="http://www.w3.org/2000/svg" width="1200" height="800" viewBox="0 0 1200 800"><rect width="1200" height="800" fill="#efede4"/><text x="70" y="90" font-family="Georgia" font-size="37" fill="#343747">Nyc Taxi Trip Duration</text><path d="M120 160l-80 420M100 160h960" stroke="#d3d0c4" stroke-width="2"/><path d="M210 160l-80 420M100 215h960" stroke="#d3d0c4" stroke-width="2"/><path d="M300 160l-80 420M100 270h960" stroke="#d3d0c4" stroke-width="2"/><path d="M390 160l-80 420M100 325h960" stroke="#d3d0c4" stroke-width="2"/><path d="M480 160l-80 420M100 380h960" stroke="#d3d0c4" stroke-width="2"/><path d="M570 160l-80 420M100 435h960" stroke="#d3d0c4" stroke-width="2"/><path d="M660 160l-80 420M100 490h960" stroke="#d3d0c4" stroke-width="2"/><path d="M750 160l-80 420M100 545h960" stroke="#d3d0c4" stroke-width="2"/><path d="M840 160l-80 420M100 600h960" stroke="#d3d0c4" stroke-width="2"/><path d="M930 160l-80 420M100 655h960" stroke="#d3d0c4" stroke-width="2"/><path d="M1020 160l-80 420M100 710h960" stroke="#d3d0c4" stroke-width="2"/><path d="M1110 160l-80 420M100 765h960" stroke="#d3d0c4" stroke-width="2"/><path d="M220 490l120-165h240l-60 130h260l115-210" stroke="#b5853d" stroke-width="9" fill="none"/><circle cx="220" cy="490" r="14" fill="#b5853d"/><circle cx="895" cy="245" r="14" fill="#b5853d"/><path d="M70 645h1060" stroke="#c9c5b9"/><text x="70" y="700" font-family="monospace" font-size="20" fill="#62636c">ILLUSTRATIVE STUDY / NOT A PROJECT SCREENSHOT</text><text x="70" y="740" font-family="Georgia" font-style="italic" font-size="24" fill="#a95047">from the project drawer</text></svg>